<?xml version="1.0" encoding="utf-8"?>
<!-- Generator: Adobe Illustrator 26.3.1, SVG Export Plug-In . SVG Version: 6.00 Build 0)  -->
<svg version="1.1" id="Capa_1" xmlns="http://www.w3.org/2000/svg" xmlns:xlink="http://www.w3.org/1999/xlink" x="0px" y="0px"
	 viewBox="0 0 434.4 434.3" style="enable-background:new 0 0 434.4 434.3;" xml:space="preserve">
<g>
	<path d="M217.2,0C97.5,0,0,97.5,0,217.2c0,119.7,97.5,217.2,217.2,217.2c119.7,0,217.2-97.5,217.2-217.2S336.9,0,217.2,0
		 M217.2,36.1c93.9,0,171.5,72.8,180.5,163H296.6c-8.4-36.1-40.9-63.8-79.4-63.8s-71.6,27.7-79.4,63.8H36.7
		C45.7,108.9,123.3,36.1,217.2,36.1 M262.9,217.2c0,25.3-20.4,45.7-45.7,45.7c-25.3,0-45.7-20.5-45.7-45.7s20.4-45.7,45.7-45.7
		C242.4,171.5,262.9,191.9,262.9,217.2 M217.2,398.3c-93.9,0-171.5-72.8-180.5-163h100.5c8.4,36.1,40.9,63.8,79.4,63.8
		c38.5,0,72.2-27.7,80-63.8h101.1C388.6,325.5,311,398.3,217.2,398.3"/>
</g>
</svg>
